<svg width="15" height="20" viewBox="0 0 15 20" fill="none" xmlns="http://www.w3.org/2000/svg">
<g clip-path="url(#clip0_32_76)">
<path d="M4.52679 0.691406C4.70759 0.265625 5.07924 0 5.48438 0H9.51562C9.92076 0 10.2924 0.265625 10.4732 0.691406L10.7143 1.25H13.9286C14.5212 1.25 15 1.80859 15 2.5C15 3.19141 14.5212 3.75 13.9286 3.75H1.07143C0.478795 3.75 0 3.19141 0 2.5C0 1.80859 0.478795 1.25 1.07143 1.25H4.28571L4.52679 0.691406ZM1.07143 5H13.9286V17.5C13.9286 18.8789 12.9676 20 11.7857 20H3.21429C2.03237 20 1.07143 18.8789 1.07143 17.5V5ZM4.28571 7.5C3.99107 7.5 3.75 7.78125 3.75 8.125V16.875C3.75 17.2188 3.99107 17.5 4.28571 17.5C4.58036 17.5 4.82143 17.2188 4.82143 16.875V8.125C4.82143 7.78125 4.58036 7.5 4.28571 7.5ZM7.5 7.5C7.20536 7.5 6.96429 7.78125 6.96429 8.125V16.875C6.96429 17.2188 7.20536 17.5 7.5 17.5C7.79464 17.5 8.03571 17.2188 8.03571 16.875V8.125C8.03571 7.78125 7.79464 7.5 7.5 7.5ZM10.7143 7.5C10.4196 7.5 10.1786 7.78125 10.1786 8.125V16.875C10.1786 17.2188 10.4196 17.5 10.7143 17.5C11.0089 17.5 11.25 17.2188 11.25 16.875V8.125C11.25 7.78125 11.0089 7.5 10.7143 7.5Z" fill="#DF2222"/>
</g>
<defs>
<clipPath id="clip0_32_76">
<rect width="15" height="20" fill="white"/>
</clipPath>
</defs>
</svg>
