<svg width="30" height="30" viewBox="0 0 30 30" fill="none" xmlns="http://www.w3.org/2000/svg">
<path d="M22.1426 6.20508L29.3379 13.4004C29.7598 13.8223 30 14.4023 30 15C30 15.5977 29.7598 16.1777 29.3379 16.5996L22.1426 23.7949C21.7676 24.1699 21.2637 24.375 20.7363 24.375C19.6406 24.375 18.75 23.4844 18.75 22.3887V18.75H11.25C10.2129 18.75 9.375 17.9121 9.375 16.875V13.125C9.375 12.0879 10.2129 11.25 11.25 11.25H18.75V7.61133C18.75 6.51562 19.6406 5.625 20.7363 5.625C21.2637 5.625 21.7676 5.83594 22.1426 6.20508ZM9.375 5.625H5.625C4.58789 5.625 3.75 6.46289 3.75 7.5V22.5C3.75 23.5371 4.58789 24.375 5.625 24.375H9.375C10.4121 24.375 11.25 25.2129 11.25 26.25C11.25 27.2871 10.4121 28.125 9.375 28.125H5.625C2.51953 28.125 0 25.6055 0 22.5V7.5C0 4.39453 2.51953 1.875 5.625 1.875H9.375C10.4121 1.875 11.25 2.71289 11.25 3.75C11.25 4.78711 10.4121 5.625 9.375 5.625Z" fill="#DF2222"/>
</svg>
